<svg width="200" height="200" viewBox="0 0 200 200" xmlns="http://www.w3.org/2000/svg">

  <svg x="0" y="0" width="100" height="100" viewBox="0 0 100 100" fill="none">
    <mask id="vscode-mask0" mask-type="alpha" maskUnits="userSpaceOnUse" x="0" y="0" width="100" height="100">
      <path fill-rule="evenodd" clip-rule="evenodd" d="M70.9119 99.3171C72.4869 99.9307 74.2828 99.8914 75.8725 99.1264L96.4608 89.2197C98.6242 88.1787 100 85.9892 100 83.5872V16.4133C100 14.0113 98.6243 11.8218 96.4609 10.7808L75.8725 0.873756C73.7862 -0.130129 71.3446 0.11576 69.5135 1.44695C69.252 1.63711 69.0028 1.84943 68.769 2.08341L29.3551 38.0415L12.1872 25.0096C10.589 23.7965 8.35363 23.8959 6.86933 25.2461L1.36303 30.2549C-0.452552 31.9064 -0.454633 34.7627 1.35853 36.417L16.2471 50.0001L1.35853 63.5832C-0.454633 65.2374 -0.452552 68.0938 1.36303 69.7453L6.86933 74.7541C8.35363 76.1043 10.589 76.2037 12.1872 74.9905L29.3551 61.9587L68.769 97.9167C69.3925 98.5406 70.1246 99.0104 70.9119 99.3171ZM75.0152 27.2989L45.1091 50.0001L75.0152 72.7012V27.2989Z" fill="white"/>
    </mask>
    <g mask="url(#vscode-mask0)">
      <path d="M96.4614 10.7962L75.8569 0.875542C73.4719 -0.272773 70.6217 0.211611 68.75 2.08333L1.29858 63.5832C-0.515693 65.2373 -0.513607 68.0937 1.30308 69.7452L6.81272 74.754C8.29793 76.1042 10.5347 76.2036 12.1338 74.9905L93.3609 13.3699C96.086 11.3026 100 13.2462 100 16.6667V16.4275C100 14.0265 98.6246 11.8378 96.4614 10.7962Z" fill="#0065A9"/>
      <g filter="url(#vscode-filter0_d)">
        <path d="M96.4614 89.2038L75.8569 99.1245C73.4719 100.273 70.6217 99.7884 68.75 97.9167L1.29858 36.4169C-0.515693 34.7627 -0.513607 31.9063 1.30308 30.2548L6.81272 25.246C8.29793 23.8958 10.5347 23.7964 12.1338 25.0095L93.3609 86.6301C96.086 88.6974 100 86.7538 100 83.3334V83.5726C100 85.9735 98.6246 88.1622 96.4614 89.2038Z" fill="#007ACC"/>
      </g>
      <g filter="url(#vscode-filter1_d)">
        <path d="M75.8578 99.1263C73.4721 100.274 70.6219 99.7885 68.75 97.9166C71.0564 100.223 75 98.5895 75 95.3278V4.67213C75 1.41039 71.0564 -0.223106 68.75 2.08329C70.6219 0.211402 73.4721 -0.273666 75.8578 0.873633L96.4587 10.7807C98.6234 11.8217 100 14.0112 100 16.4132V83.5871C100 85.9891 98.6234 88.1786 96.4586 89.2196L75.8578 99.1263Z" fill="#1F9CF0"/>
      </g>
      <g style="mix-blend-mode:overlay" opacity="0.25">
        <path fill-rule="evenodd" clip-rule="evenodd" d="M70.8511 99.3171C72.4261 99.9306 74.2221 99.8913 75.8117 99.1264L96.4 89.2197C98.5634 88.1787 99.9392 85.9892 99.9392 83.5871V16.4133C99.9392 14.0112 98.5635 11.8217 96.4001 10.7807L75.8117 0.873695C73.7255 -0.13019 71.2838 0.115699 69.4527 1.44688C69.1912 1.63705 68.942 1.84937 68.7082 2.08335L29.2943 38.0414L12.1264 25.0096C10.5283 23.7964 8.29285 23.8959 6.80855 25.246L1.30225 30.2548C-0.513334 31.9064 -0.515415 34.7627 1.29775 36.4169L16.1863 50L1.29775 63.5832C-0.515415 65.2374 -0.513334 68.0937 1.30225 69.7452L6.80855 74.754C8.29285 76.1042 10.5283 76.2036 12.1264 74.9905L29.2943 61.9586L68.7082 97.9167C69.3317 98.5405 70.0638 99.0104 70.8511 99.3171ZM74.9544 27.2989L45.0483 50L74.9544 72.7012V27.2989Z" fill="url(#vscode-paint0_linear)"/>
      </g>
    </g>
    <defs>
      <filter id="vscode-filter0_d" x="-8.39411" y="15.8291" width="116.727" height="92.2456" filterUnits="userSpaceOnUse" color-interpolation-filters="sRGB">
        <feFlood flood-opacity="0" result="BackgroundImageFix"/>
        <feColorMatrix in="SourceAlpha" type="matrix" values="0 0 0 0 0 0 0 0 0 0 0 0 0 0 0 0 0 0 127 0"/>
        <feOffset/>
        <feGaussianBlur stdDeviation="4.16667"/>
        <feColorMatrix type="matrix" values="0 0 0 0 0 0 0 0 0 0 0 0 0 0 0 0 0 0 0.25 0"/>
        <feBlend mode="overlay" in2="BackgroundImageFix" result="effect1_dropShadow"/>
        <feBlend mode="normal" in="SourceGraphic" in2="effect1_dropShadow" result="shape"/>
      </filter>
      <filter id="vscode-filter1_d" x="60.4167" y="-8.07558" width="47.9167" height="116.151" filterUnits="userSpaceOnUse" color-interpolation-filters="sRGB">
        <feFlood flood-opacity="0" result="BackgroundImageFix"/>
        <feColorMatrix in="SourceAlpha" type="matrix" values="0 0 0 0 0 0 0 0 0 0 0 0 0 0 0 0 0 0 127 0"/>
        <feOffset/>
        <feGaussianBlur stdDeviation="4.16667"/>
        <feColorMatrix type="matrix" values="0 0 0 0 0 0 0 0 0 0 0 0 0 0 0 0 0 0 0.25 0"/>
        <feBlend mode="overlay" in2="BackgroundImageFix" result="effect1_dropShadow"/>
        <feBlend mode="normal" in="SourceGraphic" in2="effect1_dropShadow" result="shape"/>
      </filter>
      <!-- <linearGradient id="vscode-paint0_linear" x1="0" y1="0" x2="100" y2="100" gradientUnits="userSpaceOnUse">
          <stop stop-color="white"/>
          <stop offset="1" stop-color="white" stop-opacity="0"/>
      </linearGradient> -->
    </defs>
  </svg>

  <svg x="100" y="100" width="100" height="100" viewBox="0 0 193 193" fill="none">
    <g clip-path="url(#vs-clip0)">
      <g clip-path="url(#vs-clip1)">
        <mask id="vs-mask0" style="mask-type:alpha" maskUnits="userSpaceOnUse" x="8" y="8" width="177" height="177">
          <path d="M40.6211 157.524L11.2134 135.467C10.2965 134.786 9.55244 133.899 9.04142 132.877C8.5304 131.855 8.26668 130.728 8.27155 129.586V63.4144C8.26668 62.2721 8.5304 61.1447 9.04142 60.1232C9.55244 59.1016 10.2965 58.2145 11.2134 57.5334L40.6211 35.4762C39.8311 36.218 39.2341 37.1414 38.8819 38.1663C38.5297 39.1912 38.433 40.2865 38.6001 41.3572V151.643C38.433 152.714 38.5297 153.809 38.8819 154.834C39.2341 155.859 39.8311 156.782 40.6211 157.524Z" fill="white"/>
          <path d="M181.456 38.8951C180.244 38.0992 178.825 37.6773 177.375 37.682C176.436 37.6744 175.504 37.8522 174.634 38.2052C173.763 38.5581 172.971 39.0793 172.302 39.7388L171.789 40.2544L113.117 96.5001L80.6548 127.637L50.6212 156.421L50.1057 156.937C49.4375 157.597 48.6453 158.119 47.7747 158.473C46.904 158.826 45.9721 159.004 45.0325 158.996C43.4419 158.993 41.8948 158.477 40.6211 157.524L11.2134 135.467C12.7075 136.589 14.5731 137.1 16.4305 136.895C18.2879 136.69 19.9973 135.785 21.2108 134.364L53.8554 96.4642L80.6548 65.3637L127.601 10.8439C128.282 10.0365 129.132 9.38792 130.091 8.94356C131.05 8.4992 132.094 8.26983 133.151 8.27152C134.601 8.26684 136.02 8.68874 137.231 9.48467L181.456 38.8951Z" fill="white"/>
          <path d="M181.456 154.105L137.342 183.515C135.841 184.495 134.037 184.901 132.261 184.658C130.486 184.415 128.857 183.539 127.675 182.192L80.6548 127.637L53.8554 96.4642L21.2108 58.5975C19.9865 57.1909 18.2755 56.2994 16.4211 56.102C14.5668 55.9046 12.7064 56.416 11.2134 57.5334L40.6211 35.4762C41.8948 34.5234 43.4419 34.007 45.0325 34.0038C45.9721 33.9959 46.904 34.1738 47.7747 34.5272C48.6453 34.8807 49.4375 35.4028 50.1057 36.0634L50.6212 36.579L80.6548 65.3637L113.117 96.5001L171.789 152.746L172.302 153.261C172.971 153.921 173.763 154.442 174.634 154.795C175.504 155.148 176.436 155.326 177.375 155.318C178.825 155.323 180.244 154.901 181.456 154.105Z" fill="white"/>
          <path d="M184.729 45.0325V147.968C184.73 149.181 184.432 150.376 183.861 151.446C183.29 152.517 182.464 153.43 181.456 154.105L137.342 183.515C138.35 182.84 139.176 181.926 139.747 180.855C140.317 179.784 140.615 178.589 140.614 177.375V15.6248C140.598 14.4022 140.281 13.2025 139.691 12.1316C139.101 11.0607 138.256 10.1516 137.231 9.48467L181.456 38.8951C182.461 39.5728 183.285 40.4866 183.856 41.5565C184.427 42.6265 184.726 43.8199 184.729 45.0325Z" fill="white"/>
        </mask>
        <g mask="url(#vs-mask0)">
          <path d="M40.6211 157.524L11.2134 135.467C10.2965 134.786 9.55244 133.898 9.04142 132.877C8.5304 131.855 8.26668 130.728 8.27155 129.586V63.4143C8.26668 62.272 8.5304 61.1446 9.04142 60.1231C9.55244 59.1015 10.2965 58.2144 11.2134 57.5333L40.6211 35.4761C39.8311 36.2179 39.2341 37.1413 38.8819 38.1662C38.5297 39.1911 38.433 40.2864 38.6001 41.3571V151.643C38.433 152.714 38.5297 153.809 38.8819 154.834C39.2341 155.859 39.8311 156.782 40.6211 157.524Z" fill="#5E438F"/>
          <g filter="url(#vs-filter0_dd)">
            <path d="M181.455 38.8951C180.244 38.0992 178.825 37.6773 177.375 37.682C176.436 37.6744 175.504 37.8522 174.633 38.2052C173.763 38.5581 172.971 39.0793 172.302 39.7388L171.789 40.2544L140.539 70.2163L113.117 96.5001L80.6543 127.637L50.6207 156.421L50.1052 156.937C49.437 157.597 48.6448 158.119 47.7742 158.473C46.9035 158.826 45.9716 159.004 45.032 158.996C43.4414 158.993 41.8943 158.477 40.6206 157.524L11.2129 135.467C12.7069 136.589 14.5726 137.1 16.43 136.895C18.2874 136.69 19.9968 135.785 21.2103 134.364L37.6815 115.249L53.8549 96.4643L80.6543 65.3637L127.6 10.8439C128.282 10.0365 129.132 9.38792 130.091 8.94356C131.049 8.4992 132.094 8.26983 133.15 8.27152C134.6 8.26684 136.019 8.68874 137.231 9.48467L181.455 38.8951Z" fill="url(#vs-paint0_linear)"/>
          </g>
          <g filter="url(#vs-filter1_dd)">
            <path d="M181.455 154.105L137.341 183.516C135.841 184.496 134.037 184.901 132.261 184.658C130.485 184.415 128.857 183.54 127.675 182.192L80.6543 127.637L53.8549 96.4644L37.6815 77.7158L21.2103 58.5978C19.986 57.1911 18.2749 56.2997 16.4206 56.1022C14.5663 55.9048 12.7059 56.4162 11.2129 57.5335L40.6206 35.4764C41.8943 34.5236 43.4414 34.0072 45.032 34.0041C45.9716 33.9961 46.9035 34.174 47.7742 34.5275C48.6448 34.8809 49.437 35.403 50.1052 36.0637L50.6207 36.5792L80.6543 65.3638L113.117 96.5002L140.578 122.823L171.789 152.746L172.302 153.262C172.971 153.921 173.763 154.442 174.633 154.795C175.504 155.148 176.436 155.326 177.375 155.318C178.825 155.323 180.244 154.901 181.455 154.105Z" fill="url(#vs-paint1_linear)"/>
          </g>
          <g filter="url(#vs-filter2_dd)">
            <path d="M184.729 45.0321V147.967C184.73 149.181 184.432 150.375 183.861 151.446C183.29 152.516 182.464 153.43 181.456 154.105L137.341 183.515C138.35 182.84 139.176 181.926 139.746 180.855C140.317 179.784 140.615 178.589 140.614 177.375V15.6244C140.598 14.4019 140.281 13.2021 139.691 12.1312C139.101 11.0603 138.256 10.1512 137.231 9.48428L181.456 38.8947C182.461 39.5724 183.285 40.4862 183.856 41.5562C184.426 42.6261 184.726 43.8196 184.729 45.0321Z" fill="url(#vs-paint2_linear)"/>
          </g>
        </g>
      </g>
    </g>
    <defs>
      <filter id="vs-filter0_dd" x="6.03194" y="4.38577" width="180.604" height="161.087" filterUnits="userSpaceOnUse" color-interpolation-filters="sRGB">
        <feFlood flood-opacity="0" result="BackgroundImageFix"/>
        <feColorMatrix in="SourceAlpha" type="matrix" values="0 0 0 0 0 0 0 0 0 0 0 0 0 0 0 0 0 0 127 0" result="hardAlpha"/>
        <feOffset dy="0.246095"/>
        <feGaussianBlur stdDeviation="0.246095"/>
        <feColorMatrix type="matrix" values="0 0 0 0 0 0 0 0 0 0 0 0 0 0 0 0 0 0 0.24 0"/>
        <feBlend mode="normal" in2="BackgroundImageFix" result="effect1_dropShadow"/>
        <feColorMatrix in="SourceAlpha" type="matrix" values="0 0 0 0 0 0 0 0 0 0 0 0 0 0 0 0 0 0 127 0" result="hardAlpha"/>
        <feOffset dy="1.29524"/>
        <feGaussianBlur stdDeviation="2.59048"/>
        <feColorMatrix type="matrix" values="0 0 0 0 0 0 0 0 0 0 0 0 0 0 0 0 0 0 0.22 0"/>
        <feBlend mode="normal" in2="effect1_dropShadow" result="effect2_dropShadow"/>
        <feBlend mode="normal" in="SourceGraphic" in2="effect2_dropShadow" result="shape"/>
      </filter>
      <filter id="vs-filter1_dd" x="6.03194" y="30.1181" width="180.604" height="161.085" filterUnits="userSpaceOnUse" color-interpolation-filters="sRGB">
        <feFlood flood-opacity="0" result="BackgroundImageFix"/>
        <feColorMatrix in="SourceAlpha" type="matrix" values="0 0 0 0 0 0 0 0 0 0 0 0 0 0 0 0 0 0 127 0" result="hardAlpha"/>
        <feOffset dy="0.246095"/>
        <feGaussianBlur stdDeviation="0.246095"/>
        <feColorMatrix type="matrix" values="0 0 0 0 0 0 0 0 0 0 0 0 0 0 0 0 0 0 0.24 0"/>
        <feBlend mode="normal" in2="BackgroundImageFix" result="effect1_dropShadow"/>
        <feColorMatrix in="SourceAlpha" type="matrix" values="0 0 0 0 0 0 0 0 0 0 0 0 0 0 0 0 0 0 127 0" result="hardAlpha"/>
        <feOffset dy="1.29524"/>
        <feGaussianBlur stdDeviation="2.59048"/>
        <feColorMatrix type="matrix" values="0 0 0 0 0 0 0 0 0 0 0 0 0 0 0 0 0 0 0.22 0"/>
        <feBlend mode="normal" in2="effect1_dropShadow" result="effect2_dropShadow"/>
        <feBlend mode="normal" in="SourceGraphic" in2="effect2_dropShadow" result="shape"/>
      </filter>
      <filter id="vs-filter2_dd" x="121.688" y="-6.05857" width="78.583" height="205.117" filterUnits="userSpaceOnUse" color-interpolation-filters="sRGB">
        <feFlood flood-opacity="0" result="BackgroundImageFix"/>
        <feColorMatrix in="SourceAlpha" type="matrix" values="0 0 0 0 0 0 0 0 0 0 0 0 0 0 0 0 0 0 127 0" result="hardAlpha"/>
        <feOffset/>
        <feGaussianBlur stdDeviation="0.129524"/>
        <feColorMatrix type="matrix" values="0 0 0 0 0 0 0 0 0 0 0 0 0 0 0 0 0 0 0.24 0"/>
        <feBlend mode="normal" in2="BackgroundImageFix" result="effect1_dropShadow"/>
        <feColorMatrix in="SourceAlpha" type="matrix" values="0 0 0 0 0 0 0 0 0 0 0 0 0 0 0 0 0 0 127 0" result="hardAlpha"/>
        <feOffset/>
        <feGaussianBlur stdDeviation="7.77143"/>
        <feColorMatrix type="matrix" values="0 0 0 0 0 0 0 0 0 0 0 0 0 0 0 0 0 0 0.3 0"/>
        <feBlend mode="normal" in2="effect1_dropShadow" result="effect2_dropShadow"/>
        <feBlend mode="normal" in="SourceGraphic" in2="effect2_dropShadow" result="shape"/>
      </filter>
      <linearGradient id="vs-paint0_linear" x1="151.642" y1="8.27149" x2="20.6141" y2="140.148" gradientUnits="userSpaceOnUse">
        <stop stop-color="#7252AA"/>
        <stop offset="1" stop-color="#7252AA"/>
      </linearGradient>
      <linearGradient id="vs-paint1_linear" x1="24.8145" y1="40.4371" x2="147.966" y2="178.293" gradientUnits="userSpaceOnUse">
        <stop stop-color="#AE7FE2"/>
        <stop offset="1" stop-color="#9A70D4"/>
      </linearGradient>
      <linearGradient id="vs-paint2_linear" x1="160.457" y1="5.93579" x2="160.457" y2="183.367" gradientUnits="userSpaceOnUse">
        <stop stop-color="#D59DFF"/>
        <stop offset="1" stop-color="#C18EF1"/>
      </linearGradient>
      <clipPath id="vs-clip0">
        <rect width="176.457" height="176.457" fill="white" transform="translate(8.27148 8.27148)"/>
      </clipPath>
      <clipPath id="vs-clip1">
        <rect width="176.457" height="176.457" fill="white" transform="translate(8.27148 8.27148)"/>
      </clipPath>
    </defs>
  </svg>

</svg>